<svg id="svgQrWrapper" viewBox="0 0 300 300" xmlns="http://www.w3.org/2000/svg" xmlns:xlink="http://www.w3.org/1999/xlink" width="300" height="300" style="width: 100%; height: 100%; background-color: rgb(255, 255, 255);"><svg fill="none" xmlns="http://www.w3.org/2000/svg" width="300" height="300" viewBox="0 0 300 300"><g transform="translate(10, 10)"><g clip-path="url(#clip0_2256_162112)"><path fill="#22071b" d="M11 27.493C11 12.163 22.413-.266 36.492-.266h202.874c14.079 0 25.492 12.428 25.492 27.76v188.529c0 15.331-11.413 27.759-25.492 27.759H36.492C22.413 243.782 11 231.354 11 216.023V27.493z"/><path fill="#22071b" d="M208.638 271.559c2.589-3.898 3.007-10.956 2.721-16.394-.525-9.965-4.002-13.817-5.245-19.479h35.666c-.354 2.12-4.062 16.029-6.931 21.976-6.706 13.897-28.134 16.793-26.211 13.897z"/><rect width="195.114" height="189.869" x="40.372" y="27.008" fill="#fff" rx="9.273"/><path fill="#22071b" d="M49.082 273.465v-18.9h4.59v14.85h8.424v4.05H49.082zm22.297.27c-1.584 0-2.96-.315-4.13-.945-1.17-.648-2.08-1.521-2.727-2.619-.649-1.116-.973-2.385-.973-3.807 0-1.098.18-2.106.54-3.024.36-.918.865-1.71 1.513-2.376a6.515 6.515 0 012.294-1.566c.9-.378 1.882-.567 2.944-.567 1.007 0 1.925.18 2.754.54.846.36 1.575.864 2.187 1.512a6.628 6.628 0 011.403 2.295c.325.882.469 1.845.433 2.889l-.028 1.161H66.17l-.621-2.43h8.531l-.458.513v-.54a2.265 2.265 0 00-.432-1.188 2.366 2.366 0 00-.945-.837 2.978 2.978 0 00-1.35-.297c-.703 0-1.306.144-1.81.432-.486.27-.855.675-1.106 1.215-.252.522-.378 1.17-.378 1.944 0 .792.162 1.485.486 2.079a3.529 3.529 0 001.457 1.35c.648.324 1.413.486 2.295.486.613 0 1.153-.09 1.62-.27.487-.18 1.008-.486 1.567-.918l2.024 2.862a8.094 8.094 0 01-1.782 1.188 8.594 8.594 0 01-1.944.675 7.989 7.989 0 01-1.944.243zm10.178-.27V255.51h4.32v17.955h-4.32zm-2.538-10.557v-3.78h9.639v3.78h-9.64zm12.135-1.026l-1.242-1.512c.756-.324 1.359-.72 1.809-1.188.468-.486.702-.891.702-1.215a.895.895 0 00-.216-.567c-.126-.198-.324-.378-.594-.54-.414-.306-.702-.603-.864-.891a1.895 1.895 0 01-.243-.945c0-.558.198-.999.594-1.323.414-.324.945-.486 1.593-.486.54 0 1.026.144 1.458.432.45.27.8.666 1.053 1.188.252.504.378 1.089.378 1.755 0 .576-.108 1.143-.324 1.701a5.553 5.553 0 01-.945 1.539 6.675 6.675 0 01-1.404 1.242c-.54.36-1.125.63-1.755.81zm12.268 11.853c-1.404 0-2.646-.225-3.727-.675-1.061-.45-1.907-1.053-2.537-1.809l2.618-2.268a5.397 5.397 0 001.891 1.242c.702.252 1.368.378 1.998.378.252 0 .477-.027.675-.081.198-.054.36-.126.486-.216.144-.108.252-.225.324-.351.072-.144.108-.306.108-.486 0-.36-.162-.639-.486-.837-.162-.09-.432-.198-.81-.324-.378-.126-.864-.27-1.458-.432a13.208 13.208 0 01-2.214-.756c-.613-.306-1.117-.657-1.513-1.053a4.315 4.315 0 01-.837-1.242 3.981 3.981 0 01-.296-1.566c0-.666.152-1.269.459-1.809a4.95 4.95 0 011.269-1.404 5.807 5.807 0 011.836-.891 7.304 7.304 0 012.16-.324c.792 0 1.548.09 2.268.27.72.18 1.386.432 1.998.756.63.324 1.188.711 1.674 1.161l-2.268 2.538a5.657 5.657 0 00-1.107-.81 5.614 5.614 0 00-1.242-.594 3.784 3.784 0 00-1.188-.216c-.27 0-.513.027-.729.081a1.198 1.198 0 00-.513.216.866.866 0 00-.324.351.911.911 0 00-.108.459c0 .18.045.351.135.513.108.162.252.297.432.405.18.108.468.234.864.378.396.126.936.288 1.62.486.846.234 1.575.495 2.187.783.612.288 1.098.63 1.458 1.026.288.306.504.666.648 1.08.144.396.216.828.216 1.296a4.08 4.08 0 01-.783 2.457c-.504.702-1.206 1.26-2.106 1.674-.9.396-1.926.594-3.078.594zm23.906 0c-1.242 0-2.367-.144-3.375-.432a9.062 9.062 0 01-2.646-1.296 11.063 11.063 0 01-2.079-2.025l2.781-3.159c.9 1.206 1.8 2.016 2.7 2.43a6.827 6.827 0 002.835.621 4.35 4.35 0 001.323-.189c.396-.126.702-.306.918-.54.216-.252.324-.558.324-.918 0-.27-.072-.513-.216-.729a1.79 1.79 0 00-.54-.567 4.04 4.04 0 00-.837-.432 6.258 6.258 0 00-1.026-.351c-.36-.108-.729-.198-1.107-.27-1.044-.234-1.953-.522-2.727-.864-.774-.342-1.422-.756-1.944-1.242a5.035 5.035 0 01-1.134-1.701c-.252-.648-.378-1.368-.378-2.16 0-.846.189-1.62.567-2.322a5.91 5.91 0 011.566-1.836 7.128 7.128 0 012.295-1.188 8.482 8.482 0 012.7-.432c1.242 0 2.304.135 3.186.405.9.252 1.665.621 2.295 1.107a6.952 6.952 0 011.647 1.755l-2.835 2.727a5.78 5.78 0 00-1.242-1.161c-.432-.306-.9-.54-1.404-.702a4.75 4.75 0 00-1.512-.243c-.54 0-1.008.072-1.404.216-.378.126-.675.315-.891.567a1.226 1.226 0 00-.324.864c0 .306.09.567.27.783.18.216.423.414.729.594a6.4 6.4 0 001.053.432c.396.108.81.198 1.242.27.99.198 1.881.459 2.673.783.81.324 1.503.72 2.079 1.188a4.634 4.634 0 011.35 1.674c.324.63.486 1.368.486 2.214 0 1.314-.324 2.43-.972 3.348-.63.9-1.503 1.593-2.619 2.079-1.098.468-2.367.702-3.807.702zm11.577-.27V255.51h4.32v17.955h-4.32zm-2.538-10.557v-3.78h9.639v3.78h-9.639zm17.268 10.8c-1.206 0-2.286-.315-3.24-.945-.936-.648-1.683-1.53-2.241-2.646-.558-1.134-.837-2.412-.837-3.834 0-1.458.279-2.745.837-3.861.558-1.116 1.323-1.989 2.295-2.619.972-.648 2.079-.972 3.321-.972.684 0 1.305.099 1.863.297.576.198 1.08.477 1.512.837.432.342.801.747 1.107 1.215.306.45.531.936.675 1.458l-.891-.108v-3.402h4.293v14.337h-4.374v-3.456l.972-.027a4.602 4.602 0 01-.702 1.431c-.324.45-.72.846-1.188 1.188a5.87 5.87 0 01-1.566.81 5.609 5.609 0 01-1.836.297zm1.188-3.645c.666 0 1.242-.153 1.728-.459a3.07 3.07 0 001.134-1.296c.27-.576.405-1.251.405-2.025s-.135-1.44-.405-1.998c-.27-.576-.648-1.017-1.134-1.323-.486-.324-1.062-.486-1.728-.486-.648 0-1.215.162-1.701.486-.468.306-.837.747-1.107 1.323-.27.558-.405 1.224-.405 1.998s.135 1.449.405 2.025c.27.558.639.99 1.107 1.296.486.306 1.053.459 1.701.459zm11.318 3.402v-14.337h4.104l.189 4.671-.81-.891a5.823 5.823 0 011.053-2.079 5.89 5.89 0 011.755-1.458 4.418 4.418 0 012.133-.54c.324 0 .621.027.891.081.288.054.549.117.783.189l-1.188 4.779c-.198-.126-.468-.225-.81-.297a3.817 3.817 0 00-1.026-.135c-.396 0-.765.072-1.107.216-.342.126-.63.315-.864.567a3.014 3.014 0 00-.567.891 3.342 3.342 0 00-.189 1.161v7.182h-4.347zm14.003 0V255.51h4.32v17.955h-4.32zm-2.538-10.557v-3.78h9.639v3.78h-9.639zm12.999 3.672a432.098 432.098 0 01-.432-3.402 78.679 78.679 0 01-.351-3.483 42.682 42.682 0 01-.135-3.321v-2.106h4.563v2.106c0 1.08-.045 2.205-.135 3.375-.09 1.17-.207 2.34-.351 3.51a124.214 124.214 0 01-.459 3.321h-2.7zm1.35 7.182c-.738 0-1.314-.207-1.728-.621-.414-.414-.621-1.008-.621-1.782 0-.72.216-1.305.648-1.755.432-.45.999-.675 1.701-.675.738 0 1.305.216 1.701.648.414.414.621 1.008.621 1.782 0 .702-.216 1.278-.648 1.728-.432.45-.99.675-1.674.675z"/></g><defs><clipPath id="clip0_2256_162112"><path fill="#fff" d="M0 0H276V276H0z"/></clipPath></defs><g transform="translate(61, 45)scale(0.52)" fill="none"><svg width="300" height="300"><style>.background-color{ fill: #fff; }.dot-color{ fill: #22071b; }.corners-square-color-0-0{ fill: #22071b; }.corners-dot-color-0-0{ fill: #22071b; }.corners-square-color-1-0{ fill: #22071b; }.corners-dot-color-1-0{ fill: #22071b; }.corners-square-color-0-1{ fill: #22071b; }.corners-dot-color-0-1{ fill: #22071b; }</style><defs/><g class="dot-color"><path d="M 5 85v 5a 5 5, 0, 0, 0, 5 5h 5v -5a 5 5, 0, 0, 0, -5 -5" transform="rotate(90,10,90)"/><path d="M 5 105v 5a 5 5, 0, 0, 0, 5 5h 5v -5a 5 5, 0, 0, 0, -5 -5" transform="rotate(90,10,110)"/><path d="M 5 125v 10h 10v -5a 5 5, 0, 0, 0, -5 -5" transform="rotate(-90,10,130)"/><path d="M 5 135v 10h 10v -5a 5 5, 0, 0, 0, -5 -5" transform="rotate(90,10,140)"/><path d="M 5 155v 5a 5 5, 0, 0, 0, 5 5h 5v -5a 5 5, 0, 0, 0, -5 -5" transform="rotate(90,10,160)"/><path d="M 5 175v 10h 10v -5a 5 5, 0, 0, 0, -5 -5" transform="rotate(-90,10,180)"/><path d="M 5 185v 10h 10v -5a 5 5, 0, 0, 0, -5 -5" transform="rotate(90,10,190)"/><path d="M 5 205v 5a 5 5, 0, 0, 0, 5 5h 5v -5a 5 5, 0, 0, 0, -5 -5" transform="rotate(90,10,210)"/><path d="M 15 95v 10h 10v -5a 5 5, 0, 0, 0, -5 -5" transform="rotate(-90,20,100)"/><path d="M 15 125v 10h 10v -5a 5 5, 0, 0, 0, -5 -5" transform="rotate(90,20,130)"/><path d="M 15 165v 5a 5 5, 0, 0, 0, 5 5h 5v -5a 5 5, 0, 0, 0, -5 -5" transform="rotate(90,20,170)"/><path d="M 15 195v 10h 10v -5a 5 5, 0, 0, 0, -5 -5" transform="rotate(-90,20,200)"/><path d="M 25 95v 10h 10v -5a 5 5, 0, 0, 0, -5 -5" transform="rotate(90,30,100)"/><rect x="25" y="195" width="10" height="10" transform="rotate(0,30,200)"/><path d="M 25 205v 10h 10v -5a 5 5, 0, 0, 0, -5 -5" transform="rotate(90,30,210)"/><path d="M 35 105v 10h 10v -5a 5 5, 0, 0, 0, -5 -5" transform="rotate(-90,40,110)"/><rect x="35" y="115" width="10" height="10" transform="rotate(0,40,120)"/><path d="M 35 125v 10h 10v -5a 5 5, 0, 0, 0, -5 -5" transform="rotate(90,40,130)"/><path d="M 35 155v 10h 10v -5a 5 5, 0, 0, 0, -5 -5" transform="rotate(-90,40,160)"/><rect x="35" y="165" width="10" height="10" transform="rotate(0,40,170)"/><path d="M 35 175v 10h 10v -5a 5 5, 0, 0, 0, -5 -5" transform="rotate(90,40,180)"/><rect x="35" y="195" width="10" height="10" transform="rotate(0,40,200)"/><path d="M 45 85v 10h 10v -5a 5 5, 0, 0, 0, -5 -5" transform="rotate(-90,50,90)"/><path d="M 45 105v 10h 10v -5a 5 5, 0, 0, 0, -5 -5" transform="rotate(90,50,110)"/><path d="M 45 135v 10h 10v -5a 5 5, 0, 0, 0, -5 -5" transform="rotate(-90,50,140)"/><rect x="45" y="145" width="10" height="10" transform="rotate(0,50,150)"/><rect x="45" y="155" width="10" height="10" transform="rotate(0,50,160)"/><rect x="45" y="165" width="10" height="10" transform="rotate(0,50,170)"/><path d="M 45 195v 10h 10v -5a 5 5, 0, 0, 0, -5 -5" transform="rotate(90,50,200)"/><rect x="55" y="85" width="10" height="10" transform="rotate(0,60,90)"/><path d="M 55 95v 10h 10v -5a 5 5, 0, 0, 0, -5 -5" transform="rotate(90,60,100)"/><path d="M 55 125v 10h 10v -5a 5 5, 0, 0, 0, -5 -5" transform="rotate(-90,60,130)"/><rect x="55" y="155" width="10" height="10" transform="rotate(0,60,160)"/><rect x="55" y="165" width="10" height="10" transform="rotate(0,60,170)"/><path d="M 55 185v 10h 10v -5a 5 5, 0, 0, 0, -5 -5" transform="rotate(-90,60,190)"/><path d="M 55 205v 10h 10v -5a 5 5, 0, 0, 0, -5 -5" transform="rotate(-90,60,210)"/><path d="M 65 85v 10h 10v -5a 5 5, 0, 0, 0, -5 -5" transform="rotate(90,70,90)"/><path d="M 65 105v 10h 10v -5a 5 5, 0, 0, 0, -5 -5" transform="rotate(-90,70,110)"/><path d="M 65 125v 10h 10v -5a 5 5, 0, 0, 0, -5 -5" transform="rotate(90,70,130)"/><path d="M 65 145v 5a 5 5, 0, 0, 0, 5 5h 5v -5a 5 5, 0, 0, 0, -5 -5" transform="rotate(90,70,150)"/><rect x="65" y="165" width="10" height="10" transform="rotate(0,70,170)"/><path d="M 65 185v 10h 10v -5a 5 5, 0, 0, 0, -5 -5" transform="rotate(90,70,190)"/><rect x="65" y="205" width="10" height="10" transform="rotate(0,70,210)"/><path d="M 75 95v 10h 10v -5a 5 5, 0, 0, 0, -5 -5" transform="rotate(-90,80,100)"/><rect x="75" y="105" width="10" height="10" transform="rotate(0,80,110)"/><path d="M 75 115v 10h 10v -5a 5 5, 0, 0, 0, -5 -5" transform="rotate(90,80,120)"/><path d="M 75 165v 10h 10v -5a 5 5, 0, 0, 0, -5 -5" transform="rotate(90,80,170)"/><path d="M 75 205v 10h 10v -5a 5 5, 0, 0, 0, -5 -5" transform="rotate(90,80,210)"/><path d="M 85 15v 10h 10v -5a 5 5, 0, 0, 0, -5 -5" transform="rotate(-90,90,20)"/><rect x="85" y="25" width="10" height="10" transform="rotate(0,90,30)"/><rect x="85" y="35" width="10" height="10" transform="rotate(0,90,40)"/><rect x="85" y="45" width="10" height="10" transform="rotate(0,90,50)"/><rect x="85" y="55" width="10" height="10" transform="rotate(0,90,60)"/><rect x="85" y="65" width="10" height="10" transform="rotate(0,90,70)"/><rect x="85" y="75" width="10" height="10" transform="rotate(0,90,80)"/><path d="M 85 135v 5a 5 5, 0, 0, 0, 5 5h 5v -5a 5 5, 0, 0, 0, -5 -5" transform="rotate(90,90,140)"/><path d="M 85 155v 5a 5 5, 0, 0, 0, 5 5h 5v -5a 5 5, 0, 0, 0, -5 -5" transform="rotate(90,90,160)"/><path d="M 85 185v 5a 5 5, 0, 0, 0, 5 5h 5v -5a 5 5, 0, 0, 0, -5 -5" transform="rotate(90,90,190)"/><path d="M 85 235v 10h 10v -5a 5 5, 0, 0, 0, -5 -5" transform="rotate(-90,90,240)"/><rect x="85" y="245" width="10" height="10" transform="rotate(0,90,250)"/><path d="M 85 285v 10h 10v -5a 5 5, 0, 0, 0, -5 -5" transform="rotate(-90,90,290)"/><rect x="95" y="15" width="10" height="10" transform="rotate(0,100,20)"/><path d="M 95 25v 10h 10v -5a 5 5, 0, 0, 0, -5 -5" transform="rotate(90,100,30)"/><rect x="95" y="45" width="10" height="10" transform="rotate(0,100,50)"/><rect x="95" y="55" width="10" height="10" transform="rotate(0,100,60)"/><rect x="95" y="75" width="10" height="10" transform="rotate(0,100,80)"/><path d="M 95 85v 10h 10v -5a 5 5, 0, 0, 0, -5 -5" transform="rotate(90,100,90)"/><path d="M 95 115v 5a 5 5, 0, 0, 0, 5 5h 5v -5a 5 5, 0, 0, 0, -5 -5" transform="rotate(90,100,120)"/><path d="M 95 215v 10h 10v -5a 5 5, 0, 0, 0, -5 -5" transform="rotate(-90,100,220)"/><rect x="95" y="235" width="10" height="10" transform="rotate(0,100,240)"/><rect x="95" y="245" width="10" height="10" transform="rotate(0,100,250)"/><rect x="95" y="255" width="10" height="10" transform="rotate(0,100,260)"/><rect x="95" y="265" width="10" height="10" transform="rotate(0,100,270)"/><path d="M 95 285v 10h 10v -5a 5 5, 0, 0, 0, -5 -5" transform="rotate(90,100,290)"/><rect x="105" y="15" width="10" height="10" transform="rotate(0,110,20)"/><rect x="105" y="55" width="10" height="10" transform="rotate(0,110,60)"/><path d="M 105 65v 10h 10v -5a 5 5, 0, 0, 0, -5 -5" transform="rotate(90,110,70)"/><path d="M 105 95v 10h 10v -5a 5 5, 0, 0, 0, -5 -5" transform="rotate(-90,110,100)"/><rect x="105" y="105" width="10" height="10" transform="rotate(0,110,110)"/><path d="M 105 125v 10h 10v -5a 5 5, 0, 0, 0, -5 -5" transform="rotate(-90,110,130)"/><rect x="105" y="135" width="10" height="10" transform="rotate(0,110,140)"/><path d="M 105 145v 10h 10v -5a 5 5, 0, 0, 0, -5 -5" transform="rotate(90,110,150)"/><path d="M 105 185v 5a 5 5, 0, 0, 0, 5 5h 5v -5a 5 5, 0, 0, 0, -5 -5" transform="rotate(90,110,190)"/><rect x="105" y="215" width="10" height="10" transform="rotate(0,110,220)"/><rect x="105" y="225" width="10" height="10" transform="rotate(0,110,230)"/><rect x="105" y="245" width="10" height="10" transform="rotate(0,110,250)"/><rect x="105" y="255" width="10" height="10" transform="rotate(0,110,260)"/><path d="M 105 265v 10h 10v -5a 5 5, 0, 0, 0, -5 -5" transform="rotate(90,110,270)"/><path d="M 115 5v 10h 10v -5a 5 5, 0, 0, 0, -5 -5" transform="rotate(-90,120,10)"/><rect x="115" y="15" width="10" height="10" transform="rotate(0,120,20)"/><path d="M 115 35v 10h 10v -5a 5 5, 0, 0, 0, -5 -5" transform="rotate(-90,120,40)"/><path d="M 115 85v 10h 10v -5a 5 5, 0, 0, 0, -5 -5" transform="rotate(-90,120,90)"/><rect x="115" y="95" width="10" height="10" transform="rotate(0,120,100)"/><rect x="115" y="105" width="10" height="10" transform="rotate(0,120,110)"/><rect x="115" y="115" width="10" height="10" transform="rotate(0,120,120)"/><rect x="115" y="125" width="10" height="10" transform="rotate(0,120,130)"/><path d="M 115 135v 10h 10v -5a 5 5, 0, 0, 0, -5 -5" transform="rotate(90,120,140)"/><path d="M 115 155v 10h 10v -5a 5 5, 0, 0, 0, -5 -5" transform="rotate(-90,120,160)"/><path d="M 115 205v 10h 10v -5a 5 5, 0, 0, 0, -5 -5" transform="rotate(-90,120,210)"/><rect x="115" y="215" width="10" height="10" transform="rotate(0,120,220)"/><rect x="115" y="225" width="10" height="10" transform="rotate(0,120,230)"/><rect x="115" y="235" width="10" height="10" transform="rotate(0,120,240)"/><rect x="115" y="245" width="10" height="10" transform="rotate(0,120,250)"/><path d="M 115 255v 10h 10v -5a 5 5, 0, 0, 0, -5 -5" transform="rotate(90,120,260)"/><path d="M 115 275v 10h 10v -5a 5 5, 0, 0, 0, -5 -5" transform="rotate(-90,120,280)"/><path d="M 125 15v 10h 10v -5a 5 5, 0, 0, 0, -5 -5" transform="rotate(90,130,20)"/><rect x="125" y="35" width="10" height="10" transform="rotate(0,130,40)"/><rect x="125" y="45" width="10" height="10" transform="rotate(0,130,50)"/><path d="M 125 65v 5a 5 5, 0, 0, 0, 5 5h 5v -5a 5 5, 0, 0, 0, -5 -5" transform="rotate(90,130,70)"/><path d="M 125 95v 10h 10v -5a 5 5, 0, 0, 0, -5 -5" transform="rotate(90,130,100)"/><path d="M 125 115v 10h 10v -5a 5 5, 0, 0, 0, -5 -5" transform="rotate(90,130,120)"/><rect x="125" y="155" width="10" height="10" transform="rotate(0,130,160)"/><rect x="125" y="165" width="10" height="10" transform="rotate(0,130,170)"/><rect x="125" y="175" width="10" height="10" transform="rotate(0,130,180)"/><rect x="125" y="215" width="10" height="10" transform="rotate(0,130,220)"/><path d="M 125 235v 10h 10v -5a 5 5, 0, 0, 0, -5 -5" transform="rotate(90,130,240)"/><rect x="125" y="275" width="10" height="10" transform="rotate(0,130,280)"/><rect x="125" y="285" width="10" height="10" transform="rotate(0,130,290)"/><path d="M 135 25v 10h 10v -5a 5 5, 0, 0, 0, -5 -5" transform="rotate(-90,140,30)"/><rect x="135" y="35" width="10" height="10" transform="rotate(0,140,40)"/><rect x="135" y="45" width="10" height="10" transform="rotate(0,140,50)"/><rect x="135" y="55" width="10" height="10" transform="rotate(0,140,60)"/><path d="M 135 145v 10h 10v -5a 5 5, 0, 0, 0, -5 -5" transform="rotate(-90,140,150)"/><rect x="135" y="155" width="10" height="10" transform="rotate(0,140,160)"/><rect x="135" y="165" width="10" height="10" transform="rotate(0,140,170)"/><rect x="135" y="175" width="10" height="10" transform="rotate(0,140,180)"/><path d="M 135 195v 10h 10v -5a 5 5, 0, 0, 0, -5 -5" transform="rotate(-90,140,200)"/><rect x="135" y="205" width="10" height="10" transform="rotate(0,140,210)"/><rect x="135" y="215" width="10" height="10" transform="rotate(0,140,220)"/><rect x="135" y="225" width="10" height="10" transform="rotate(0,140,230)"/><path d="M 135 245v 10h 10v -5a 5 5, 0, 0, 0, -5 -5" transform="rotate(-90,140,250)"/><path d="M 135 255v 10h 10v -5a 5 5, 0, 0, 0, -5 -5" transform="rotate(90,140,260)"/><rect x="135" y="275" width="10" height="10" transform="rotate(0,140,280)"/><path d="M 135 285v 10h 10v -5a 5 5, 0, 0, 0, -5 -5" transform="rotate(90,140,290)"/><path d="M 145 5v 10h 10v -5a 5 5, 0, 0, 0, -5 -5" transform="rotate(-90,150,10)"/><rect x="145" y="15" width="10" height="10" transform="rotate(0,150,20)"/><path d="M 145 25v 10h 10v -5a 5 5, 0, 0, 0, -5 -5" transform="rotate(90,150,30)"/><rect x="145" y="45" width="10" height="10" transform="rotate(0,150,50)"/><rect x="145" y="55" width="10" height="10" transform="rotate(0,150,60)"/><rect x="145" y="65" width="10" height="10" transform="rotate(0,150,70)"/><rect x="145" y="75" width="10" height="10" transform="rotate(0,150,80)"/><rect x="145" y="85" width="10" height="10" transform="rotate(0,150,90)"/><rect x="145" y="95" width="10" height="10" transform="rotate(0,150,100)"/><rect x="145" y="105" width="10" height="10" transform="rotate(0,150,110)"/><rect x="145" y="115" width="10" height="10" transform="rotate(0,150,120)"/><rect x="145" y="125" width="10" height="10" transform="rotate(0,150,130)"/><path d="M 145 155v 10h 10v -5a 5 5, 0, 0, 0, -5 -5" transform="rotate(90,150,160)"/><rect x="145" y="175" width="10" height="10" transform="rotate(0,150,180)"/><rect x="145" y="205" width="10" height="10" transform="rotate(0,150,210)"/><rect x="145" y="225" width="10" height="10" transform="rotate(0,150,230)"/><path d="M 145 235v 10h 10v -5a 5 5, 0, 0, 0, -5 -5" transform="rotate(90,150,240)"/><path d="M 145 275v 10h 10v -5a 5 5, 0, 0, 0, -5 -5" transform="rotate(90,150,280)"/><path d="M 155 45v 10h 10v -5a 5 5, 0, 0, 0, -5 -5" transform="rotate(90,160,50)"/><rect x="155" y="75" width="10" height="10" transform="rotate(0,160,80)"/><rect x="155" y="85" width="10" height="10" transform="rotate(0,160,90)"/><rect x="155" y="95" width="10" height="10" transform="rotate(0,160,100)"/><rect x="155" y="105" width="10" height="10" transform="rotate(0,160,110)"/><rect x="155" y="125" width="10" height="10" transform="rotate(0,160,130)"/><rect x="155" y="135" width="10" height="10" transform="rotate(0,160,140)"/><rect x="155" y="145" width="10" height="10" transform="rotate(0,160,150)"/><rect x="155" y="175" width="10" height="10" transform="rotate(0,160,180)"/><path d="M 155 185v 10h 10v -5a 5 5, 0, 0, 0, -5 -5" transform="rotate(90,160,190)"/><path d="M 155 205v 10h 10v -5a 5 5, 0, 0, 0, -5 -5" transform="rotate(90,160,210)"/><path d="M 155 245v 10h 10v -5a 5 5, 0, 0, 0, -5 -5" transform="rotate(-90,160,250)"/><rect x="155" y="255" width="10" height="10" transform="rotate(0,160,260)"/><path d="M 165 15v 10h 10v -5a 5 5, 0, 0, 0, -5 -5" transform="rotate(-90,170,20)"/><path d="M 165 35v 10h 10v -5a 5 5, 0, 0, 0, -5 -5" transform="rotate(-90,170,40)"/><path d="M 165 55v 10h 10v -5a 5 5, 0, 0, 0, -5 -5" transform="rotate(-90,170,60)"/><rect x="165" y="65" width="10" height="10" transform="rotate(0,170,70)"/><path d="M 165 75v 10h 10v -5a 5 5, 0, 0, 0, -5 -5" transform="rotate(90,170,80)"/><rect x="165" y="95" width="10" height="10" transform="rotate(0,170,100)"/><rect x="165" y="105" width="10" height="10" transform="rotate(0,170,110)"/><rect x="165" y="115" width="10" height="10" transform="rotate(0,170,120)"/><rect x="165" y="125" width="10" height="10" transform="rotate(0,170,130)"/><rect x="165" y="135" width="10" height="10" transform="rotate(0,170,140)"/><rect x="165" y="145" width="10" height="10" transform="rotate(0,170,150)"/><path d="M 165 165v 5a 5 5, 0, 0, 0, 5 5h 5v -5a 5 5, 0, 0, 0, -5 -5" transform="rotate(90,170,170)"/><path d="M 165 195v 5a 5 5, 0, 0, 0, 5 5h 5v -5a 5 5, 0, 0, 0, -5 -5" transform="rotate(90,170,200)"/><path d="M 165 235v 5a 5 5, 0, 0, 0, 5 5h 5v -5a 5 5, 0, 0, 0, -5 -5" transform="rotate(90,170,240)"/><rect x="165" y="255" width="10" height="10" transform="rotate(0,170,260)"/><path d="M 165 265v 10h 10v -5a 5 5, 0, 0, 0, -5 -5" transform="rotate(90,170,270)"/><path d="M 165 285v 10h 10v -5a 5 5, 0, 0, 0, -5 -5" transform="rotate(-90,170,290)"/><path d="M 175 5v 10h 10v -5a 5 5, 0, 0, 0, -5 -5" transform="rotate(-90,180,10)"/><rect x="175" y="15" width="10" height="10" transform="rotate(0,180,20)"/><rect x="175" y="25" width="10" height="10" transform="rotate(0,180,30)"/><rect x="175" y="35" width="10" height="10" transform="rotate(0,180,40)"/><path d="M 175 45v 10h 10v -5a 5 5, 0, 0, 0, -5 -5" transform="rotate(90,180,50)"/><path d="M 175 95v 10h 10v -5a 5 5, 0, 0, 0, -5 -5" transform="rotate(90,180,100)"/><path d="M 175 115v 10h 10v -5a 5 5, 0, 0, 0, -5 -5" transform="rotate(90,180,120)"/><rect x="175" y="145" width="10" height="10" transform="rotate(0,180,150)"/><rect x="175" y="155" width="10" height="10" transform="rotate(0,180,160)"/><path d="M 175 185v 10h 10v -5a 5 5, 0, 0, 0, -5 -5" transform="rotate(-90,180,190)"/><path d="M 175 205v 10h 10v -5a 5 5, 0, 0, 0, -5 -5" transform="rotate(-90,180,210)"/><path d="M 175 215v 10h 10v -5a 5 5, 0, 0, 0, -5 -5" transform="rotate(90,180,220)"/><path d="M 175 245v 10h 10v -5a 5 5, 0, 0, 0, -5 -5" transform="rotate(-90,180,250)"/><rect x="175" y="255" width="10" height="10" transform="rotate(0,180,260)"/><path d="M 175 275v 10h 10v -5a 5 5, 0, 0, 0, -5 -5" transform="rotate(-90,180,280)"/><path d="M 175 285v 10h 10v -5a 5 5, 0, 0, 0, -5 -5" transform="rotate(90,180,290)"/><rect x="185" y="5" width="10" height="10" transform="rotate(0,190,10)"/><rect x="185" y="25" width="10" height="10" transform="rotate(0,190,30)"/><path d="M 185 65v 10h 10v -5a 5 5, 0, 0, 0, -5 -5" transform="rotate(-90,190,70)"/><rect x="185" y="75" width="10" height="10" transform="rotate(0,190,80)"/><rect x="185" y="85" width="10" height="10" transform="rotate(0,190,90)"/><path d="M 185 105v 10h 10v -5a 5 5, 0, 0, 0, -5 -5" transform="rotate(-90,190,110)"/><path d="M 185 135v 10h 10v -5a 5 5, 0, 0, 0, -5 -5" transform="rotate(-90,190,140)"/><rect x="185" y="155" width="10" height="10" transform="rotate(0,190,160)"/><rect x="185" y="165" width="10" height="10" transform="rotate(0,190,170)"/><rect x="185" y="175" width="10" height="10" transform="rotate(0,190,180)"/><rect x="185" y="185" width="10" height="10" transform="rotate(0,190,190)"/><path d="M 185 225v 10h 10v -5a 5 5, 0, 0, 0, -5 -5" transform="rotate(-90,190,230)"/><rect x="185" y="245" width="10" height="10" transform="rotate(0,190,250)"/><path d="M 185 255v 10h 10v -5a 5 5, 0, 0, 0, -5 -5" transform="rotate(90,190,260)"/><rect x="195" y="5" width="10" height="10" transform="rotate(0,200,10)"/><path d="M 195 25v 10h 10v -5a 5 5, 0, 0, 0, -5 -5" transform="rotate(90,200,30)"/><path d="M 195 55v 10h 10v -5a 5 5, 0, 0, 0, -5 -5" transform="rotate(-90,200,60)"/><rect x="195" y="75" width="10" height="10" transform="rotate(0,200,80)"/><rect x="195" y="85" width="10" height="10" transform="rotate(0,200,90)"/><rect x="195" y="105" width="10" height="10" transform="rotate(0,200,110)"/><path d="M 195 115v 10h 10v -5a 5 5, 0, 0, 0, -5 -5" transform="rotate(90,200,120)"/><path d="M 195 135v 10h 10v -5a 5 5, 0, 0, 0, -5 -5" transform="rotate(90,200,140)"/><rect x="195" y="155" width="10" height="10" transform="rotate(0,200,160)"/><rect x="195" y="185" width="10" height="10" transform="rotate(0,200,190)"/><rect x="195" y="195" width="10" height="10" transform="rotate(0,200,200)"/><rect x="195" y="205" width="10" height="10" transform="rotate(0,200,210)"/><rect x="195" y="225" width="10" height="10" transform="rotate(0,200,230)"/><rect x="195" y="245" width="10" height="10" transform="rotate(0,200,250)"/><path d="M 195 275v 10h 10v -5a 5 5, 0, 0, 0, -5 -5" transform="rotate(-90,200,280)"/><rect x="195" y="285" width="10" height="10" transform="rotate(0,200,290)"/><path d="M 205 5v 10h 10v -5a 5 5, 0, 0, 0, -5 -5" transform="rotate(90,210,10)"/><path d="M 205 35v 10h 10v -5a 5 5, 0, 0, 0, -5 -5" transform="rotate(-90,210,40)"/><rect x="205" y="45" width="10" height="10" transform="rotate(0,210,50)"/><rect x="205" y="55" width="10" height="10" transform="rotate(0,210,60)"/><rect x="205" y="65" width="10" height="10" transform="rotate(0,210,70)"/><rect x="205" y="75" width="10" height="10" transform="rotate(0,210,80)"/><rect x="205" y="85" width="10" height="10" transform="rotate(0,210,90)"/><rect x="205" y="95" width="10" height="10" transform="rotate(0,210,100)"/><rect x="205" y="105" width="10" height="10" transform="rotate(0,210,110)"/><path d="M 205 125v 10h 10v -5a 5 5, 0, 0, 0, -5 -5" transform="rotate(-90,210,130)"/><path d="M 205 145v 10h 10v -5a 5 5, 0, 0, 0, -5 -5" transform="rotate(-90,210,150)"/><path d="M 205 155v 10h 10v -5a 5 5, 0, 0, 0, -5 -5" transform="rotate(90,210,160)"/><path d="M 205 175v 10h 10v -5a 5 5, 0, 0, 0, -5 -5" transform="rotate(-90,210,180)"/><rect x="205" y="185" width="10" height="10" transform="rotate(0,210,190)"/><rect x="205" y="195" width="10" height="10" transform="rotate(0,210,200)"/><rect x="205" y="205" width="10" height="10" transform="rotate(0,210,210)"/><rect x="205" y="215" width="10" height="10" transform="rotate(0,210,220)"/><rect x="205" y="225" width="10" height="10" transform="rotate(0,210,230)"/><rect x="205" y="235" width="10" height="10" transform="rotate(0,210,240)"/><rect x="205" y="245" width="10" height="10" transform="rotate(0,210,250)"/><rect x="205" y="255" width="10" height="10" transform="rotate(0,210,260)"/><rect x="205" y="265" width="10" height="10" transform="rotate(0,210,270)"/><rect x="205" y="275" width="10" height="10" transform="rotate(0,210,280)"/><rect x="205" y="285" width="10" height="10" transform="rotate(0,210,290)"/><rect x="215" y="85" width="10" height="10" transform="rotate(0,220,90)"/><path d="M 215 105v 10h 10v -5a 5 5, 0, 0, 0, -5 -5" transform="rotate(90,220,110)"/><rect x="215" y="125" width="10" height="10" transform="rotate(0,220,130)"/><path d="M 215 135v 10h 10v -5a 5 5, 0, 0, 0, -5 -5" transform="rotate(90,220,140)"/><path d="M 215 165v 10h 10v -5a 5 5, 0, 0, 0, -5 -5" transform="rotate(-90,220,170)"/><rect x="215" y="185" width="10" height="10" transform="rotate(0,220,190)"/><rect x="215" y="205" width="10" height="10" transform="rotate(0,220,210)"/><rect x="215" y="245" width="10" height="10" transform="rotate(0,220,250)"/><path d="M 215 255v 10h 10v -5a 5 5, 0, 0, 0, -5 -5" transform="rotate(90,220,260)"/><rect x="215" y="275" width="10" height="10" transform="rotate(0,220,280)"/><path d="M 215 285v 10h 10v -5a 5 5, 0, 0, 0, -5 -5" transform="rotate(90,220,290)"/><rect x="225" y="85" width="10" height="10" transform="rotate(0,230,90)"/><rect x="225" y="95" width="10" height="10" transform="rotate(0,230,100)"/><path d="M 225 145v 10h 10v -5a 5 5, 0, 0, 0, -5 -5" transform="rotate(-90,230,150)"/><rect x="225" y="155" width="10" height="10" transform="rotate(0,230,160)"/><path d="M 225 165v 10h 10v -5a 5 5, 0, 0, 0, -5 -5" transform="rotate(90,230,170)"/><rect x="225" y="185" width="10" height="10" transform="rotate(0,230,190)"/><rect x="225" y="195" width="10" height="10" transform="rotate(0,230,200)"/><rect x="225" y="205" width="10" height="10" transform="rotate(0,230,210)"/><path d="M 225 225v 5a 5 5, 0, 0, 0, 5 5h 5v -5a 5 5, 0, 0, 0, -5 -5" transform="rotate(90,230,230)"/><rect x="225" y="245" width="10" height="10" transform="rotate(0,230,250)"/><rect x="235" y="85" width="10" height="10" transform="rotate(0,240,90)"/><rect x="235" y="95" width="10" height="10" transform="rotate(0,240,100)"/><rect x="235" y="105" width="10" height="10" transform="rotate(0,240,110)"/><path d="M 235 135v 10h 10v -5a 5 5, 0, 0, 0, -5 -5" transform="rotate(-90,240,140)"/><rect x="235" y="145" width="10" height="10" transform="rotate(0,240,150)"/><rect x="235" y="195" width="10" height="10" transform="rotate(0,240,200)"/><rect x="235" y="205" width="10" height="10" transform="rotate(0,240,210)"/><rect x="235" y="245" width="10" height="10" transform="rotate(0,240,250)"/><rect x="235" y="255" width="10" height="10" transform="rotate(0,240,260)"/><path d="M 235 285v 10h 10v -5a 5 5, 0, 0, 0, -5 -5" transform="rotate(-90,240,290)"/><rect x="245" y="85" width="10" height="10" transform="rotate(0,250,90)"/><rect x="245" y="95" width="10" height="10" transform="rotate(0,250,100)"/><rect x="245" y="105" width="10" height="10" transform="rotate(0,250,110)"/><path d="M 245 115v 10h 10v -5a 5 5, 0, 0, 0, -5 -5" transform="rotate(90,250,120)"/><rect x="245" y="135" width="10" height="10" transform="rotate(0,250,140)"/><rect x="245" y="145" width="10" height="10" transform="rotate(0,250,150)"/><rect x="245" y="155" width="10" height="10" transform="rotate(0,250,160)"/><path d="M 245 185v 5a 5 5, 0, 0, 0, 5 5h 5v -5a 5 5, 0, 0, 0, -5 -5" transform="rotate(90,250,190)"/><rect x="245" y="205" width="10" height="10" transform="rotate(0,250,210)"/><rect x="245" y="215" width="10" height="10" transform="rotate(0,250,220)"/><rect x="245" y="225" width="10" height="10" transform="rotate(0,250,230)"/><rect x="245" y="235" width="10" height="10" transform="rotate(0,250,240)"/><rect x="245" y="245" width="10" height="10" transform="rotate(0,250,250)"/><rect x="245" y="255" width="10" height="10" transform="rotate(0,250,260)"/><path d="M 245 265v 10h 10v -5a 5 5, 0, 0, 0, -5 -5" transform="rotate(90,250,270)"/><path d="M 245 285v 10h 10v -5a 5 5, 0, 0, 0, -5 -5" transform="rotate(90,250,290)"/><rect x="255" y="85" width="10" height="10" transform="rotate(0,260,90)"/><rect x="255" y="95" width="10" height="10" transform="rotate(0,260,100)"/><path d="M 255 105v 10h 10v -5a 5 5, 0, 0, 0, -5 -5" transform="rotate(90,260,110)"/><path d="M 255 125v 5a 5 5, 0, 0, 0, 5 5h 5v -5a 5 5, 0, 0, 0, -5 -5" transform="rotate(90,260,130)"/><rect x="255" y="155" width="10" height="10" transform="rotate(0,260,160)"/><rect x="255" y="165" width="10" height="10" transform="rotate(0,260,170)"/><rect x="255" y="175" width="10" height="10" transform="rotate(0,260,180)"/><path d="M 255 195v 10h 10v -5a 5 5, 0, 0, 0, -5 -5" transform="rotate(-90,260,200)"/><rect x="255" y="205" width="10" height="10" transform="rotate(0,260,210)"/><rect x="255" y="215" width="10" height="10" transform="rotate(0,260,220)"/><rect x="255" y="235" width="10" height="10" transform="rotate(0,260,240)"/><rect x="255" y="255" width="10" height="10" transform="rotate(0,260,260)"/><rect x="265" y="85" width="10" height="10" transform="rotate(0,270,90)"/><path d="M 265 115v 10h 10v -5a 5 5, 0, 0, 0, -5 -5" transform="rotate(-90,270,120)"/><path d="M 265 135v 10h 10v -5a 5 5, 0, 0, 0, -5 -5" transform="rotate(-90,270,140)"/><rect x="265" y="145" width="10" height="10" transform="rotate(0,270,150)"/><path d="M 265 175v 10h 10v -5a 5 5, 0, 0, 0, -5 -5" transform="rotate(90,270,180)"/><rect x="265" y="195" width="10" height="10" transform="rotate(0,270,200)"/><rect x="265" y="205" width="10" height="10" transform="rotate(0,270,210)"/><rect x="265" y="215" width="10" height="10" transform="rotate(0,270,220)"/><rect x="265" y="225" width="10" height="10" transform="rotate(0,270,230)"/><rect x="265" y="235" width="10" height="10" transform="rotate(0,270,240)"/><rect x="265" y="245" width="10" height="10" transform="rotate(0,270,250)"/><rect x="265" y="255" width="10" height="10" transform="rotate(0,270,260)"/><path d="M 265 275v 10h 10v -5a 5 5, 0, 0, 0, -5 -5" transform="rotate(-90,270,280)"/><rect x="275" y="85" width="10" height="10" transform="rotate(0,280,90)"/><rect x="275" y="95" width="10" height="10" transform="rotate(0,280,100)"/><rect x="275" y="105" width="10" height="10" transform="rotate(0,280,110)"/><path d="M 275 115v 10h 10v -5a 5 5, 0, 0, 0, -5 -5" transform="rotate(90,280,120)"/><rect x="275" y="145" width="10" height="10" transform="rotate(0,280,150)"/><path d="M 275 165v 5a 5 5, 0, 0, 0, 5 5h 5v -5a 5 5, 0, 0, 0, -5 -5" transform="rotate(90,280,170)"/><path d="M 275 185v 5a 5 5, 0, 0, 0, 5 5h 5v -5a 5 5, 0, 0, 0, -5 -5" transform="rotate(90,280,190)"/><rect x="275" y="205" width="10" height="10" transform="rotate(0,280,210)"/><rect x="275" y="215" width="10" height="10" transform="rotate(0,280,220)"/><rect x="275" y="245" width="10" height="10" transform="rotate(0,280,250)"/><rect x="275" y="255" width="10" height="10" transform="rotate(0,280,260)"/><path d="M 275 275v 10h 10v -5a 5 5, 0, 0, 0, -5 -5" transform="rotate(90,280,280)"/><path d="M 285 105v 10h 10v -5a 5 5, 0, 0, 0, -5 -5" transform="rotate(90,290,110)"/><path d="M 285 145v 10h 10v -5a 5 5, 0, 0, 0, -5 -5" transform="rotate(90,290,150)"/><path d="M 285 175v 5a 5 5, 0, 0, 0, 5 5h 5v -5a 5 5, 0, 0, 0, -5 -5" transform="rotate(90,290,180)"/><path d="M 285 195v 5a 5 5, 0, 0, 0, 5 5h 5v -5a 5 5, 0, 0, 0, -5 -5" transform="rotate(90,290,200)"/><rect x="285" y="215" width="10" height="10" transform="rotate(0,290,220)"/><path d="M 285 225v 10h 10v -5a 5 5, 0, 0, 0, -5 -5" transform="rotate(90,290,230)"/><rect x="285" y="245" width="10" height="10" transform="rotate(0,290,250)"/><path d="M 285 255v 10h 10v -5a 5 5, 0, 0, 0, -5 -5" transform="rotate(90,290,260)"/></g><g class="corners-square-color-0-0"><path clip-rule="evenodd" d="M 5 30v 20a 25 25, 0, 0, 0, 25 25h 20a 25 25, 0, 0, 0, 25 -25v -20a 25 25, 0, 0, 0, -25 -25h -20a 25 25, 0, 0, 0, -25 25M 30 15h 20a 15 15, 0, 0, 1, 15 15v 20a 15 15, 0, 0, 1, -15 15h -20a 15 15, 0, 0, 1, -15 -15v -20a 15 15, 0, 0, 1, 15 -15" transform="rotate(0,40,40)"/></g><g class="corners-dot-color-0-0"><rect x="25" y="25" width="30" height="30" transform="rotate(0,40,40)"/></g><g class="corners-square-color-1-0"><path clip-rule="evenodd" d="M 225 30v 20a 25 25, 0, 0, 0, 25 25h 20a 25 25, 0, 0, 0, 25 -25v -20a 25 25, 0, 0, 0, -25 -25h -20a 25 25, 0, 0, 0, -25 25M 250 15h 20a 15 15, 0, 0, 1, 15 15v 20a 15 15, 0, 0, 1, -15 15h -20a 15 15, 0, 0, 1, -15 -15v -20a 15 15, 0, 0, 1, 15 -15" transform="rotate(90,260,40)"/></g><g class="corners-dot-color-1-0"><rect x="245" y="25" width="30" height="30" transform="rotate(90,260,40)"/></g><g class="corners-square-color-0-1"><path clip-rule="evenodd" d="M 5 250v 20a 25 25, 0, 0, 0, 25 25h 20a 25 25, 0, 0, 0, 25 -25v -20a 25 25, 0, 0, 0, -25 -25h -20a 25 25, 0, 0, 0, -25 25M 30 235h 20a 15 15, 0, 0, 1, 15 15v 20a 15 15, 0, 0, 1, -15 15h -20a 15 15, 0, 0, 1, -15 -15v -20a 15 15, 0, 0, 1, 15 -15" transform="rotate(-90,40,260)"/></g><g class="corners-dot-color-0-1"><rect x="25" y="245" width="30" height="30" transform="rotate(-90,40,260)"/></g></svg></g></g></svg></svg>